<svg xmlns="http://www.w3.org/2000/svg" viewBox="0 0 24 24" fill="#D4AF37">
  <path d="M12 2.2c3.2 0 3.6 0 4.8.1 1.2.1 1.9.2 2.3.4.6.2 1 .5 1.5 1 .5.5.8.9 1 1.5.2.4.3 1.1.4 2.3.1 1.2.1 1.6.1 4.8s0 3.6-.1 4.8c-.1 1.2-.2 1.9-.4 2.3-.2.6-.5 1-1 1.5-.5.5-.9.8-1.5 1-.4.2-1.1.3-2.3.4-1.2.1-1.6.1-4.8.1s-3.6 0-4.8-.1c-1.2-.1-1.9-.2-2.3-.4-.6-.2-1-.5-1.5-1-.5-.5-.8-.9-1-1.5-.2-.4-.3-1.1-.4-2.3C2.2 15.6 2.2 15.2 2.2 12s0-3.6.1-4.8c.1-1.2.2-1.9.4-2.3.2-.6.5-1 1-1.5.5-.5.9-.8 1.5-1 .4-.2 1.1-.3 2.3-.4C8.4 2.2 8.8 2.2 12 2.2zm0 2c-3.1 0-3.4 0-4.6.1-1 .1-1.5.2-1.9.3-.5.2-.8.4-1.1.8-.3.3-.6.6-.8 1.1-.1.4-.3.9-.3 1.9-.1 1.2-.1 1.5-.1 4.6s0 3.4.1 4.6c.1 1 .2 1.5.3 1.9.2.5.4.8.8 1.1.3.3.6.6 1.1.8.4.1.9.3 1.9.3 1.2.1 1.5.1 4.6.1s3.4 0 4.6-.1c1-.1 1.5-.2 1.9-.3.5-.2.8-.4 1.1-.8.3-.3.6.6.8-1.1.1-.4.3-.9.3-1.9.1-1.2.1-1.5.1-4.6s0-3.4-.1-4.6c-.1-1-.2-1.5-.3-1.9-.2-.5-.4-.8-.8-1.1-.3-.3-.6-.6-1.1-.8-.4-.1-.9-.3-1.9-.3-1.2-.1-1.5-.1-4.6-.1zm0 3.6a4.2 4.2 0 110 8.4 4.2 4.2 0 010-8.4zm6.5-2.1a1 1 0 110 2 1 1 0 010-2z"/>
</svg>